<?xml version="1.0" encoding="UTF-8" standalone="no"?><svg xmlns="http://www.w3.org/2000/svg" xmlns:xlink="http://www.w3.org/1999/xlink" fill="#000000" height="1000" preserveAspectRatio="xMidYMid meet" version="1" viewBox="500.0 500.0 1000.0 1000.0" width="1000" zoomAndPan="magnify"><g><g id="change1_1"><path d="M 500 1000 C 500 1276.140625 723.859375 1500 1000 1500 C 1276.140625 1500 1500 1276.140625 1500 1000 C 1500 723.859375 1276.140625 500 1000 500 C 723.859375 500 500 723.859375 500 1000" fill="#004aad"/></g><g id="change2_1"><path d="M 1499.921875 1009.039062 C 1499.921875 1009.03125 1499.921875 1009.011719 1499.921875 1009 C 1499.921875 1009.011719 1499.921875 1009.03125 1499.921875 1009.039062 M 1499.929688 1008.671875 C 1499.929688 1008.660156 1499.929688 1008.628906 1499.929688 1008.609375 C 1499.929688 1008.640625 1499.929688 1008.640625 1499.929688 1008.671875 M 1499.929688 1008.300781 C 1499.929688 1008.269531 1499.929688 1008.261719 1499.929688 1008.230469 C 1499.929688 1008.261719 1499.929688 1008.269531 1499.929688 1008.300781 M 1499.941406 1007.921875 C 1499.941406 1007.890625 1499.941406 1007.871094 1499.941406 1007.839844 C 1499.941406 1007.871094 1499.941406 1007.890625 1499.941406 1007.921875 M 1499.941406 1007.550781 C 1499.941406 1007.519531 1499.941406 1007.488281 1499.949219 1007.449219 C 1499.941406 1007.488281 1499.941406 1007.519531 1499.941406 1007.550781 M 1499.949219 1007.160156 C 1499.949219 1007.128906 1499.949219 1007.109375 1499.949219 1007.078125 C 1499.949219 1007.109375 1499.949219 1007.128906 1499.949219 1007.160156 M 1499.949219 1006.78125 C 1499.949219 1006.761719 1499.960938 1006.71875 1499.960938 1006.699219 C 1499.960938 1006.71875 1499.949219 1006.769531 1499.949219 1006.78125 M 1499.960938 1006.398438 C 1499.960938 1006.359375 1499.960938 1006.371094 1499.960938 1006.328125 C 1499.960938 1006.351562 1499.960938 1006.378906 1499.960938 1006.398438 M 1499.960938 1006.019531 C 1499.960938 1006 1499.960938 1005.980469 1499.960938 1005.960938 C 1499.960938 1005.980469 1499.960938 1006 1499.960938 1006.019531 M 1499.980469 1004.621094 C 1499.980469 1004.578125 1499.980469 1004.519531 1499.980469 1004.488281 C 1499.980469 1004.519531 1499.980469 1004.589844 1499.980469 1004.621094 M 1499.980469 1004.25 C 1499.980469 1004.199219 1499.980469 1004.148438 1499.980469 1004.101562 C 1499.980469 1004.171875 1499.980469 1004.191406 1499.980469 1004.25 M 1499.988281 1003.878906 C 1499.988281 1003.808594 1499.988281 1003.78125 1499.988281 1003.710938 C 1499.988281 1003.769531 1499.988281 1003.808594 1499.988281 1003.878906 M 1499.988281 1003.488281 C 1499.988281 1003.441406 1499.988281 1003.371094 1499.988281 1003.320312 C 1499.988281 1003.371094 1499.988281 1003.449219 1499.988281 1003.488281 M 1499.988281 1003.109375 C 1499.988281 1003.050781 1499.988281 1002.988281 1499.988281 1002.921875 C 1499.988281 1002.980469 1499.988281 1003.050781 1499.988281 1003.109375 M 1499.988281 1002.730469 C 1499.988281 1002.660156 1499.988281 1002.601562 1499.988281 1002.53125 C 1499.988281 1002.589844 1499.988281 1002.671875 1499.988281 1002.730469 M 1499.988281 1002.339844 C 1499.988281 1002.269531 1499.988281 1002.199219 1500 1002.140625 C 1499.988281 1002.21875 1499.988281 1002.261719 1499.988281 1002.339844 M 1500 1001.949219 C 1500 1001.878906 1500 1001.820312 1500 1001.75 C 1500 1001.808594 1500 1001.890625 1500 1001.949219 M 1500 1001.558594 C 1500 1001.488281 1500 1001.410156 1500 1001.351562 C 1500 1001.410156 1500 1001.5 1500 1001.558594 M 1500 1001.171875 C 1500 1001.101562 1500 1001 1500 1000.941406 C 1500 1001.019531 1500 1001.089844 1500 1001.171875 M 1500 1000.78125 C 1500 1000.699219 1500 1000.601562 1500 1000.519531 C 1500 1000.609375 1500 1000.691406 1500 1000.78125 M 1500 1000.390625 C 1500 1000.261719 1500 1000.128906 1500 1000 C 1500 1000.121094 1500 1000.269531 1500 1000.390625 M 1500 1000 C 1500 999.878906 1500 999.75 1500 999.640625 C 1500 999.761719 1500 999.878906 1500 1000 M 1500 999.390625 C 1500 999.359375 1500 999.328125 1500 999.300781 C 1500 999.328125 1500 999.359375 1500 999.390625" fill="#f1f1f0"/></g><g id="change3_1"><path d="M 1056.960938 1496.679688 L 655.945312 1095.660156 C 665.503906 1094.160156 674.941406 1093.441406 684.253906 1093.441406 C 792.378906 1093.441406 882.523438 1190.101562 923.527344 1282.359375 C 976.472656 1117.648438 1105.878906 970.589844 1264.710938 905.890625 C 1229.351562 840.230469 1228.730469 752.910156 1273.949219 696.011719 L 1492.601562 914.660156 C 1497.328125 942.191406 1499.960938 970.429688 1500 999.300781 C 1500 999.328125 1500 999.359375 1500 999.390625 C 1500 999.46875 1500 999.550781 1500 999.640625 C 1500 999.75 1500 999.878906 1500 1000 C 1500 1000.128906 1500 1000.261719 1500 1000.390625 C 1500 1000.441406 1500 1000.46875 1500 1000.519531 C 1500 1000.601562 1500 1000.699219 1500 1000.78125 C 1500 1000.828125 1500 1000.890625 1500 1000.941406 C 1500 1001 1500 1001.101562 1500 1001.171875 C 1500 1001.230469 1500 1001.28125 1500 1001.351562 C 1500 1001.410156 1500 1001.488281 1500 1001.558594 C 1500 1001.621094 1500 1001.691406 1500 1001.75 C 1500 1001.820312 1500 1001.878906 1500 1001.949219 C 1500 1002.011719 1500 1002.070312 1500 1002.140625 C 1499.988281 1002.199219 1499.988281 1002.269531 1499.988281 1002.339844 C 1499.988281 1002.398438 1499.988281 1002.46875 1499.988281 1002.53125 C 1499.988281 1002.601562 1499.988281 1002.660156 1499.988281 1002.730469 C 1499.988281 1002.789062 1499.988281 1002.859375 1499.988281 1002.921875 C 1499.988281 1002.988281 1499.988281 1003.050781 1499.988281 1003.109375 C 1499.988281 1003.191406 1499.988281 1003.238281 1499.988281 1003.320312 C 1499.988281 1003.371094 1499.988281 1003.441406 1499.988281 1003.488281 C 1499.988281 1003.570312 1499.988281 1003.628906 1499.988281 1003.710938 C 1499.988281 1003.78125 1499.988281 1003.808594 1499.988281 1003.878906 C 1499.980469 1003.941406 1499.980469 1004.039062 1499.980469 1004.101562 C 1499.980469 1004.148438 1499.980469 1004.199219 1499.980469 1004.25 C 1499.980469 1004.328125 1499.980469 1004.410156 1499.980469 1004.488281 C 1499.980469 1004.519531 1499.980469 1004.578125 1499.980469 1004.621094 C 1499.96875 1005.070312 1499.96875 1005.511719 1499.960938 1005.960938 C 1499.960938 1005.980469 1499.960938 1006 1499.960938 1006.019531 C 1499.960938 1006.128906 1499.960938 1006.21875 1499.960938 1006.328125 C 1499.960938 1006.371094 1499.960938 1006.359375 1499.960938 1006.398438 C 1499.960938 1006.5 1499.960938 1006.589844 1499.960938 1006.699219 C 1499.960938 1006.71875 1499.949219 1006.761719 1499.949219 1006.78125 C 1499.949219 1006.890625 1499.949219 1006.96875 1499.949219 1007.078125 C 1499.949219 1007.109375 1499.949219 1007.128906 1499.949219 1007.160156 C 1499.949219 1007.261719 1499.949219 1007.359375 1499.949219 1007.449219 C 1499.941406 1007.488281 1499.941406 1007.519531 1499.941406 1007.550781 C 1499.941406 1007.640625 1499.941406 1007.75 1499.941406 1007.839844 C 1499.941406 1007.871094 1499.941406 1007.890625 1499.941406 1007.921875 C 1499.941406 1008.019531 1499.929688 1008.128906 1499.929688 1008.230469 C 1499.929688 1008.261719 1499.929688 1008.269531 1499.929688 1008.300781 C 1499.929688 1008.398438 1499.929688 1008.519531 1499.929688 1008.609375 C 1499.929688 1008.628906 1499.929688 1008.660156 1499.929688 1008.671875 C 1499.921875 1008.78125 1499.921875 1008.890625 1499.921875 1009 C 1499.921875 1009.011719 1499.921875 1009.03125 1499.921875 1009.039062 C 1495.429688 1261.808594 1303.328125 1468.71875 1056.960938 1496.679688" fill="#004aad"/></g><g id="change4_1"><path d="M 650.328125 1090.671875 L 832.269531 981.128906 L 921.386719 1150.078125 C 921.386719 1150.078125 960.375 1023.828125 1064.339844 886.449219 C 1168.308594 749.058594 1277.851562 695.21875 1277.851562 695.21875 C 1277.851562 695.21875 1272.28125 788.050781 1275.988281 840.03125 C 1279.699219 892.019531 1290.839844 940.289062 1290.839844 940.289062 C 1290.839844 940.289062 1183.160156 988.558594 1071.769531 1124.089844 C 960.375 1259.621094 925.101562 1328.308594 925.101562 1328.308594 C 925.101562 1328.308594 856.40625 1235.480469 785.855469 1179.789062 C 715.308594 1124.089844 650.328125 1090.671875 650.328125 1090.671875" fill="#ffffff"/></g></g></svg>