<?xml version="1.0" encoding="UTF-8" standalone="no"?><svg xmlns="http://www.w3.org/2000/svg" xmlns:xlink="http://www.w3.org/1999/xlink" fill="#ffffff" height="2714.5" preserveAspectRatio="xMidYMid meet" version="1" viewBox="277.1 276.0 2711.9 2714.5" width="2711.9" zoomAndPan="magnify"><g id="change1_1"><path d="M15765 29859 c-235 -9 -503 -26 -635 -39 -255 -26 -390 -41 -460 -50 -361 -48 -533 -74 -760 -116 -47 -8 -112 -20 -145 -25 -61 -10 -251 -49 -360 -74 -860 -198 -1549 -416 -2319 -737 -132 -55 -276 -116 -320 -137 -45 -21 -110 -51 -146 -66 -228 -100 -803 -402 -1125 -589 -1311 -764 -2499 -1761 -3506 -2941 -709 -831 -1326 -1771 -1819 -2770 -314 -636 -561 -1252 -781 -1945 -28 -91 -55 -178 -59 -195 -5 -16 -22 -79 -40 -140 -163 -563 -313 -1272 -390 -1840 -11 -82 -24 -184 -30 -225 -23 -174 -55 -526 -82 -905 -17 -245 -17 -1268 0 -1510 22 -304 42 -546 52 -625 5 -41 12 -104 15 -140 3 -36 10 -96 15 -135 6 -38 17 -124 26 -190 33 -255 104 -659 170 -975 33 -161 180 -762 204 -834 6 -17 28 -94 51 -171 484 -1665 1322 -3271 2433 -4660 434 -543 1008 -1149 1511 -1596 28 -24 52 -46 55 -49 29 -29 347 -302 440 -378 245 -200 590 -460 830 -625 354 -244 847 -553 1110 -694 41 -22 98 -53 125 -69 146 -82 763 -394 779 -394 3 0 49 -21 103 -46 54 -25 124 -57 156 -70 32 -14 86 -38 121 -54 35 -16 115 -50 177 -75 63 -25 128 -52 144 -60 35 -15 269 -104 305 -116 14 -4 57 -19 95 -34 75 -28 212 -77 285 -101 73 -24 337 -108 410 -129 110 -33 229 -68 275 -80 209 -56 474 -125 520 -135 22 -5 72 -16 110 -25 39 -9 90 -20 115 -25 25 -6 74 -17 110 -25 36 -8 112 -24 170 -35 58 -11 128 -24 155 -30 66 -13 158 -30 220 -40 194 -32 262 -43 355 -55 58 -7 157 -20 220 -29 180 -24 585 -60 860 -76 786 -45 1342 -33 2265 50 118 10 246 26 335 40 30 5 82 12 115 15 33 4 83 10 110 15 28 5 100 17 160 25 61 9 128 20 150 25 22 5 81 17 130 26 112 20 234 44 470 94 147 31 592 143 735 185 30 9 64 19 75 22 11 3 40 11 65 18 25 7 72 20 105 30 33 9 85 25 115 35 30 10 102 32 160 50 58 18 134 42 170 55 36 12 85 29 110 38 98 33 276 99 292 108 10 5 23 9 29 9 6 0 25 6 42 14 18 7 52 21 77 31 25 9 54 21 65 26 11 5 56 22 100 39 44 17 89 35 100 40 29 13 97 42 210 90 118 50 175 76 314 141 57 27 105 49 108 49 5 0 453 224 543 272 36 19 95 51 133 71 37 20 97 53 135 73 37 20 72 40 77 44 6 4 30 18 55 32 209 115 437 255 775 477 278 182 696 488 989 724 87 71 346 286 356 297 3 3 43 39 90 80 47 41 103 91 124 110 22 19 76 69 120 111 45 41 105 98 135 125 92 83 480 472 597 599 468 506 866 1001 1250 1555 172 248 388 587 520 815 138 239 179 312 304 545 57 107 278 551 313 630 8 19 38 87 67 150 28 63 58 131 66 150 17 39 22 51 57 130 13 30 28 66 32 80 4 14 11 30 15 35 4 6 22 51 40 100 19 50 36 95 40 100 4 6 14 33 24 60 10 28 22 59 27 70 20 43 181 499 214 605 46 150 67 215 75 235 8 17 46 150 71 240 4 17 15 55 24 85 42 142 154 588 185 735 4 22 15 72 23 110 18 83 51 257 73 375 8 47 17 94 20 105 3 11 9 47 14 80 5 33 16 105 25 160 15 93 26 170 54 382 67 493 111 1176 111 1713 0 674 -64 1491 -165 2105 -9 55 -20 127 -25 160 -5 33 -11 69 -14 80 -3 11 -13 61 -22 110 -15 86 -78 402 -94 475 -13 58 -41 181 -57 245 -8 33 -18 76 -22 95 -5 19 -21 80 -35 135 -15 54 -36 133 -47 175 -50 190 -126 441 -230 754 -100 299 -203 571 -350 924 -96 229 -115 271 -190 431 -27 57 -49 105 -49 108 0 5 -225 455 -272 543 -73 138 -123 229 -181 330 -33 58 -69 121 -80 140 -217 387 -687 1088 -986 1469 -203 259 -422 524 -571 691 -254 285 -662 704 -930 955 -273 257 -742 652 -1036 875 -977 741 -2084 1366 -3194 1803 -355 140 -873 319 -1140 395 -19 6 -105 30 -190 55 -324 95 -853 220 -1125 267 -283 50 -367 64 -470 80 -66 10 -174 26 -240 35 -66 8 -149 20 -185 25 -36 5 -135 16 -220 25 -85 8 -198 20 -250 25 -387 42 -1238 60 -1755 39z m1220 -979 c367 -18 580 -36 890 -76 737 -93 1333 -215 1955 -400 946 -280 1700 -588 2510 -1027 1335 -722 2548 -1701 3544 -2862 782 -910 1381 -1842 1901 -2960 306 -658 618 -1554 779 -2240 10 -38 28 -115 42 -170 13 -55 29 -122 34 -150 5 -27 17 -81 25 -120 23 -103 66 -329 96 -510 55 -332 78 -509 114 -875 81 -828 72 -1766 -26 -2615 -48 -425 -137 -942 -230 -1345 -11 -47 -27 -116 -36 -155 -158 -693 -464 -1586 -775 -2264 -400 -874 -845 -1625 -1392 -2351 -258 -342 -363 -472 -681 -835 -171 -196 -779 -806 -970 -975 -77 -67 -153 -135 -170 -149 -551 -487 -1255 -991 -1915 -1373 -773 -447 -1559 -803 -2364 -1069 -295 -98 -767 -233 -1011 -289 -432 -99 -473 -108 -560 -125 -38 -7 -108 -21 -155 -30 -977 -186 -2195 -246 -3270 -160 -443 36 -904 94 -1190 151 -41 8 -97 19 -125 24 -150 30 -305 63 -425 91 -74 17 -162 37 -195 44 -565 129 -1414 407 -1945 638 -853 371 -1473 709 -2195 1195 -883 595 -1763 1386 -2501 2248 -196 229 -464 572 -644 824 -684 958 -1222 1980 -1615 3070 -62 173 -139 405 -177 530 -300 1007 -432 1692 -527 2740 -40 436 -49 1130 -22 1660 32 627 130 1377 251 1930 12 52 25 115 30 140 14 64 95 393 115 465 9 33 21 78 26 100 6 22 26 94 46 160 19 66 37 129 40 140 18 68 103 337 157 495 323 938 761 1845 1308 2705 321 503 749 1069 1158 1530 819 924 1777 1735 2784 2360 1232 763 2466 1267 3941 1610 445 103 1245 222 1725 255 121 9 443 24 685 34 140 5 749 -3 960 -14z" transform="matrix(.1 0 0 -.1 0 3264)"/><path d="M15855 28429 c-233 -9 -504 -27 -600 -39 -44 -5 -147 -17 -230 -25 -227 -24 -498 -61 -705 -96 -63 -11 -151 -26 -195 -34 -249 -43 -438 -84 -765 -166 -151 -38 -286 -73 -300 -78 -14 -5 -59 -19 -100 -31 -1167 -337 -2288 -853 -3289 -1514 -989 -654 -1856 -1425 -2617 -2326 -1003 -1190 -1802 -2643 -2270 -4130 -247 -785 -407 -1548 -498 -2375 -9 -77 -20 -201 -26 -275 -5 -74 -12 -151 -15 -170 -11 -77 -26 -581 -26 -845 0 -761 64 -1462 201 -2205 61 -333 178 -828 265 -1125 14 -47 37 -124 51 -172 36 -126 185 -569 234 -698 298 -790 626 -1461 1053 -2155 103 -167 190 -301 348 -535 306 -454 787 -1042 1219 -1490 1002 -1037 2095 -1838 3370 -2469 1271 -629 2605 -1021 4020 -1180 271 -30 338 -37 490 -46 942 -59 1765 -26 2635 105 848 127 1581 314 2400 613 749 273 1553 668 2255 1110 557 350 1031 704 1555 1161 477 416 1033 998 1441 1506 600 749 1145 1627 1535 2473 75 161 89 194 129 287 23 55 51 118 61 140 122 267 329 852 463 1310 54 186 143 527 172 660 199 909 279 1550 302 2425 31 1131 -107 2297 -402 3405 -525 1974 -1571 3832 -2967 5269 -683 704 -1312 1228 -2079 1731 -974 640 -1987 1117 -3085 1453 -71 22 -175 54 -230 71 -129 39 -613 161 -780 197 -385 81 -855 155 -1255 199 -80 8 -185 20 -235 25 -361 41 -1068 59 -1530 39z m610 -3203 c1011 -80 1799 -259 2552 -582 1613 -690 2638 -1967 2922 -3639 66 -386 102 -927 81 -1223 -56 -809 -363 -1501 -957 -2156 -196 -215 -411 -411 -712 -651 -161 -128 -163 -130 -140 -145 13 -8 94 -69 180 -135 468 -358 888 -777 1193 -1189 502 -678 783 -1386 883 -2231 14 -119 17 -229 17 -530 0 -410 -11 -549 -69 -885 -304 -1746 -1533 -3134 -3465 -3915 -832 -336 -1744 -538 -2740 -607 -273 -19 -910 -16 -1135 6 -885 84 -1742 316 -2575 699 -1069 490 -2006 1199 -2551 1929 -49 66 -93 128 -99 138 -9 17 24 55 268 307 153 159 390 405 528 548 137 143 428 445 645 670 218 226 548 569 734 763 187 193 342 352 346 352 4 0 90 -79 191 -176 607 -584 1139 -952 1698 -1172 271 -106 508 -168 838 -219 168 -26 195 -27 547 -28 307 0 389 3 485 18 325 51 562 119 775 222 482 233 796 620 915 1127 70 302 75 673 14 1008 -124 673 -536 1087 -1244 1248 -317 73 -500 81 -1702 82 l-928 0 0 1475 0 1475 958 0 c1159 1 1249 6 1569 85 828 205 1308 710 1384 1455 26 261 -23 631 -116 871 -142 368 -380 658 -728 883 -115 75 -343 185 -487 234 -429 147 -928 177 -1380 81 -158 -33 -318 -78 -455 -129 -619 -227 -1205 -608 -1740 -1132 l-170 -166 -345 416 c-190 228 -601 724 -915 1102 -313 378 -699 843 -858 1034 l-288 348 60 67 c102 115 346 336 571 517 799 643 1865 1204 2828 1488 537 158 1050 252 1537 280 148 9 904 -4 1080 -18z" transform="matrix(.1 0 0 -.1 0 3264)"/></g></svg>