<?xml version="1.0" encoding="UTF-8" standalone="no"?><svg xmlns="http://www.w3.org/2000/svg" xmlns:xlink="http://www.w3.org/1999/xlink" fill="#000000" height="277.5" preserveAspectRatio="xMidYMid meet" version="1.1" viewBox="86.2 86.2 277.5 277.5" width="277.5" zoomAndPan="magnify">
 <g fill="#ffde59" id="change1_1">
  <path d="m323.57 187.17c-1.48 0-2.9-0.87-3.51-2.32-10.76-25.44-31.66-45.81-57.34-55.9-1.96-0.77-2.92-2.99-2.15-4.95 0.76-1.95 2.98-2.91 4.94-2.15 27.58 10.84 50.02 32.72 61.57 60.03 0.82 1.94-0.09 4.17-2.03 4.99-0.48 0.2-0.99 0.3-1.48 0.3" fill="inherit"/>
  <path d="m126.25 187.61c-0.49 0-0.99-0.1-1.47-0.3-1.94-0.81-2.86-3.04-2.05-4.99 11.5-27.52 34.01-49.56 61.76-60.46 1.95-0.77 4.17 0.19 4.94 2.15s-0.19 4.17-2.15 4.94c-25.84 10.16-46.81 30.68-57.51 56.32-0.61 1.46-2.03 2.34-3.52 2.34" fill="inherit"/>
  <path d="m185.89 328.41c-0.47 0-0.94-0.08-1.4-0.26-27.74-10.91-50.25-32.94-61.75-60.45-0.81-1.94 0.11-4.17 2.05-4.99 1.94-0.81 4.17 0.11 4.99 2.05 10.7 25.62 31.67 46.14 57.5 56.29 1.96 0.77 2.92 2.99 2.15 4.95-0.59 1.5-2.02 2.41-3.54 2.41" fill="inherit"/>
  <path d="m264.19 328.38c-1.52 0-2.96-0.91-3.55-2.41-0.76-1.96 0.2-4.17 2.16-4.95 25.79-10.16 46.73-30.67 57.42-56.26 0.82-1.94 3.05-2.86 4.99-2.05 1.94 0.82 2.86 3.05 2.05 4.99-11.49 27.48-33.97 49.5-61.67 60.42-0.46 0.18-0.93 0.26-1.4 0.26" fill="inherit"/>
  <path d="m225 93.852c-13.33 0-24.18 10.848-24.18 24.168 0 13.34 10.85 24.18 24.18 24.18s24.17-10.84 24.17-24.18c0-13.32-10.84-24.168-24.17-24.168zm0 55.968c-17.54 0-31.8-14.26-31.8-31.8 0-17.53 14.26-31.793 31.8-31.793 17.53 0 31.8 14.263 31.8 31.793 0 17.54-14.27 31.8-31.8 31.8" fill="inherit"/>
  <path d="m225 307.8c-13.33 0-24.18 10.84-24.18 24.18 0 13.32 10.85 24.17 24.18 24.17s24.17-10.85 24.17-24.17c0-13.34-10.84-24.18-24.17-24.18zm0 55.97c-17.54 0-31.8-14.26-31.8-31.79 0-17.54 14.26-31.8 31.8-31.8 17.53 0 31.8 14.26 31.8 31.8 0 17.53-14.27 31.79-31.8 31.79" fill="inherit"/>
  <path d="m118.02 200.82c-13.32 0-24.172 10.85-24.172 24.18s10.852 24.18 24.172 24.18c13.33 0 24.18-10.85 24.18-24.18s-10.85-24.18-24.18-24.18zm0 55.98c-17.53 0-31.793-14.26-31.793-31.8s14.263-31.8 31.793-31.8c17.54 0 31.8 14.26 31.8 31.8s-14.26 31.8-31.8 31.8" fill="inherit"/>
  <path d="m331.98 200.82c-13.33 0-24.18 10.85-24.18 24.18s10.85 24.18 24.18 24.18c13.32 0 24.17-10.85 24.17-24.18s-10.85-24.18-24.17-24.18zm0 55.98c-17.54 0-31.8-14.26-31.8-31.8s14.26-31.8 31.8-31.8c17.53 0 31.79 14.26 31.79 31.8s-14.26 31.8-31.79 31.8" fill="inherit"/>
 </g>
</svg>