<?xml version="1.0" encoding="UTF-8" standalone="no"?><svg xmlns="http://www.w3.org/2000/svg" xmlns:xlink="http://www.w3.org/1999/xlink" fill="#ffffff" height="2713.3" preserveAspectRatio="xMidYMid meet" version="1" viewBox="274.7 275.0 2713.6 2713.3" width="2713.6" zoomAndPan="magnify"><g id="change1_1"><path d="M15676 29881 c-3 -4 -122 -12 -263 -16 -142 -4 -262 -10 -268 -14 -9 -5 -169 -22 -360 -37 -38 -3 -74 -9 -80 -14 -5 -4 -59 -11 -119 -15 -61 -4 -117 -11 -125 -16 -9 -4 -60 -11 -113 -14 -54 -4 -100 -11 -104 -16 -3 -5 -27 -9 -55 -9 -27 0 -49 -4 -49 -9 0 -4 -39 -11 -87 -15 -48 -4 -92 -10 -98 -14 -9 -6 -114 -24 -225 -38 -25 -4 -49 -10 -55 -14 -5 -4 -39 -11 -75 -15 -36 -4 -69 -10 -75 -14 -5 -3 -39 -11 -75 -18 -94 -17 -122 -23 -145 -33 -11 -5 -45 -13 -75 -19 -30 -5 -86 -17 -125 -26 -38 -9 -85 -19 -102 -22 -18 -3 -33 -9 -33 -13 0 -4 -21 -10 -47 -14 -45 -6 -94 -19 -138 -37 -11 -4 -39 -11 -62 -14 -24 -4 -45 -10 -48 -15 -3 -4 -28 -11 -55 -15 -27 -4 -52 -11 -56 -16 -3 -5 -16 -9 -29 -9 -13 0 -26 -4 -29 -9 -3 -5 -27 -12 -52 -16 -26 -4 -54 -10 -63 -15 -9 -4 -43 -16 -76 -26 -33 -10 -64 -21 -70 -25 -5 -3 -27 -10 -49 -13 -21 -4 -46 -11 -55 -15 -9 -5 -43 -17 -76 -27 -33 -10 -64 -21 -70 -25 -5 -4 -26 -10 -45 -14 -19 -4 -39 -11 -45 -15 -5 -4 -26 -11 -45 -15 -19 -4 -42 -11 -52 -16 -10 -5 -26 -13 -37 -18 -10 -5 -35 -13 -55 -16 -20 -4 -39 -11 -42 -16 -3 -5 -14 -9 -25 -9 -10 0 -19 -4 -19 -9 0 -5 -17 -12 -37 -16 -21 -4 -42 -10 -48 -15 -5 -4 -23 -10 -39 -14 -16 -4 -47 -16 -68 -26 -21 -10 -52 -22 -68 -25 -17 -4 -32 -11 -35 -16 -4 -5 -14 -9 -23 -9 -9 0 -30 -7 -46 -15 -15 -8 -35 -15 -42 -15 -8 0 -14 -4 -14 -10 0 -5 -8 -10 -17 -10 -10 0 -31 -7 -47 -15 -15 -8 -32 -15 -36 -15 -9 0 -131 -53 -162 -70 -10 -6 -22 -10 -28 -10 -6 0 -48 -18 -94 -40 -46 -22 -88 -40 -95 -40 -6 0 -11 -4 -11 -10 0 -5 -5 -10 -11 -10 -9 0 -30 -8 -153 -63 -95 -43 -636 -316 -646 -327 -3 -3 -30 -18 -60 -33 -129 -67 -175 -92 -178 -99 -2 -5 -10 -8 -17 -8 -8 0 -20 -6 -27 -12 -7 -7 -30 -22 -51 -32 -20 -11 -37 -22 -37 -26 0 -5 -11 -11 -24 -14 -13 -3 -61 -28 -105 -56 -44 -27 -83 -50 -86 -50 -4 0 -21 -11 -39 -25 -18 -14 -36 -25 -40 -25 -4 0 -22 -11 -39 -24 -18 -13 -52 -35 -77 -48 -49 -28 -148 -91 -167 -108 -7 -5 -17 -10 -23 -10 -5 0 -10 -4 -10 -10 0 -5 -4 -10 -9 -10 -11 0 -116 -67 -239 -153 -53 -37 -106 -73 -116 -80 -32 -21 -384 -274 -398 -286 -7 -7 -49 -39 -93 -72 -105 -79 -143 -110 -171 -134 -13 -11 -37 -31 -55 -45 -18 -14 -37 -30 -43 -35 -6 -6 -20 -17 -32 -25 -30 -21 -112 -90 -145 -122 -16 -15 -35 -30 -42 -35 -8 -4 -38 -28 -67 -53 -28 -25 -60 -52 -70 -60 -43 -37 -166 -147 -191 -171 -15 -15 -36 -33 -47 -40 -98 -69 -812 -784 -973 -974 -18 -22 -43 -49 -54 -60 -18 -19 -99 -111 -156 -179 -13 -16 -29 -34 -34 -40 -64 -71 -206 -242 -243 -291 -4 -6 -20 -26 -37 -46 -16 -20 -41 -51 -55 -69 -14 -18 -30 -37 -35 -44 -6 -6 -31 -38 -55 -71 -24 -33 -57 -76 -73 -95 -15 -19 -31 -39 -35 -45 -4 -5 -22 -29 -40 -51 -17 -23 -32 -45 -32 -48 0 -4 -11 -19 -25 -34 -14 -15 -25 -32 -25 -39 0 -6 -4 -13 -10 -15 -5 -1 -41 -48 -79 -103 -39 -55 -78 -109 -86 -120 -8 -10 -15 -25 -15 -31 0 -7 -3 -14 -8 -16 -12 -5 -105 -136 -158 -223 -27 -44 -52 -81 -56 -83 -5 -2 -8 -10 -8 -17 0 -7 -4 -15 -8 -17 -8 -3 -64 -90 -111 -172 -13 -22 -34 -55 -47 -73 -13 -17 -24 -35 -24 -39 0 -4 -11 -22 -25 -40 -14 -18 -25 -35 -25 -38 0 -3 -19 -36 -41 -73 -23 -38 -55 -91 -70 -120 -42 -77 -53 -97 -59 -103 -8 -8 -47 -78 -77 -140 -16 -30 -33 -60 -39 -67 -6 -6 -17 -26 -24 -45 -8 -18 -17 -35 -20 -38 -6 -5 -53 -96 -162 -315 -68 -136 -78 -156 -98 -192 -17 -32 -50 -112 -50 -122 0 -6 -3 -11 -8 -11 -4 0 -13 -15 -21 -32 -8 -18 -22 -52 -32 -75 -11 -23 -19 -49 -19 -57 0 -9 -3 -16 -8 -16 -4 0 -13 -15 -21 -32 -21 -51 -71 -161 -80 -178 -5 -9 -12 -30 -16 -48 -3 -18 -11 -32 -16 -32 -5 0 -9 -6 -9 -13 0 -13 -19 -59 -41 -99 -5 -10 -9 -23 -9 -30 0 -7 -14 -40 -30 -73 -16 -33 -30 -68 -30 -77 0 -9 -4 -19 -9 -23 -5 -3 -12 -18 -16 -35 -3 -16 -15 -47 -25 -68 -10 -21 -22 -52 -26 -68 -4 -16 -10 -33 -14 -39 -5 -5 -11 -27 -15 -47 -4 -21 -11 -38 -16 -38 -5 0 -9 -9 -9 -19 0 -11 -4 -22 -9 -25 -5 -3 -12 -22 -16 -42 -3 -20 -11 -45 -16 -55 -5 -11 -13 -27 -18 -37 -5 -10 -12 -33 -16 -52 -4 -19 -11 -39 -15 -45 -4 -5 -11 -26 -15 -45 -4 -19 -10 -39 -14 -45 -4 -5 -15 -37 -25 -70 -10 -33 -22 -68 -27 -77 -5 -9 -12 -35 -15 -58 -4 -22 -11 -43 -15 -46 -5 -3 -9 -16 -9 -29 0 -13 -4 -26 -9 -30 -6 -3 -13 -26 -17 -50 -3 -25 -10 -45 -14 -45 -5 0 -12 -25 -15 -55 -4 -30 -11 -55 -16 -55 -5 0 -9 -11 -9 -24 0 -14 -4 -27 -9 -30 -5 -4 -12 -29 -16 -56 -4 -27 -10 -52 -15 -55 -4 -3 -11 -29 -15 -60 -3 -30 -11 -57 -16 -60 -5 -4 -9 -17 -9 -30 0 -13 -4 -26 -9 -29 -5 -3 -12 -33 -16 -66 -4 -33 -11 -63 -16 -66 -5 -3 -9 -18 -9 -34 0 -16 -4 -31 -9 -34 -5 -4 -12 -30 -16 -59 -4 -28 -11 -56 -15 -62 -4 -5 -11 -37 -15 -69 -4 -33 -11 -66 -15 -75 -12 -22 -40 -154 -40 -184 0 -14 -4 -28 -9 -31 -5 -3 -12 -39 -16 -78 -4 -40 -11 -77 -15 -83 -4 -5 -10 -28 -14 -50 -16 -113 -32 -201 -37 -210 -4 -5 -10 -48 -14 -95 -4 -47 -11 -89 -15 -95 -8 -10 -11 -29 -32 -205 -7 -58 -16 -109 -20 -115 -3 -5 -9 -61 -13 -123 -4 -62 -12 -115 -16 -118 -5 -3 -9 -37 -9 -75 0 -39 -4 -78 -9 -88 -5 -9 -13 -84 -17 -167 -3 -82 -10 -156 -15 -164 -4 -9 -11 -118 -15 -243 -4 -125 -11 -230 -15 -233 -12 -7 -12 -1291 -1 -1298 5 -3 12 -110 16 -238 4 -128 11 -237 15 -243 5 -5 11 -80 15 -165 4 -85 11 -159 17 -165 5 -5 9 -39 9 -76 0 -37 4 -70 9 -73 4 -3 12 -60 16 -126 4 -66 10 -122 15 -125 4 -2 11 -50 14 -105 4 -55 12 -102 17 -105 5 -4 9 -28 9 -55 0 -27 4 -51 9 -54 4 -3 11 -45 15 -93 4 -48 10 -92 14 -98 6 -9 19 -82 38 -215 4 -25 10 -49 14 -55 4 -5 11 -39 15 -75 4 -36 10 -69 14 -75 3 -5 12 -41 19 -80 21 -115 24 -130 32 -140 5 -5 11 -37 15 -70 4 -33 11 -64 15 -70 5 -5 11 -36 15 -68 4 -31 11 -60 16 -63 5 -3 9 -18 9 -35 0 -16 4 -29 9 -29 4 0 11 -27 15 -60 4 -33 11 -62 16 -65 6 -4 10 -17 10 -30 0 -13 4 -26 9 -29 5 -3 12 -30 16 -61 3 -30 10 -57 15 -60 4 -3 11 -28 15 -55 4 -27 11 -52 16 -56 5 -3 9 -16 9 -30 0 -13 4 -24 9 -24 5 0 12 -25 16 -55 3 -30 10 -55 14 -55 6 0 21 -51 38 -132 3 -16 9 -28 13 -28 4 0 10 -18 14 -40 3 -23 10 -49 15 -58 5 -9 17 -44 27 -77 10 -33 21 -64 25 -70 4 -5 10 -27 14 -48 4 -20 11 -40 16 -43 5 -3 9 -15 9 -27 0 -12 7 -35 15 -51 8 -15 15 -37 15 -47 0 -11 4 -19 9 -19 5 0 12 -18 16 -40 4 -22 11 -42 16 -46 5 -3 9 -14 9 -25 0 -10 4 -19 9 -19 5 0 12 -17 16 -37 4 -21 10 -42 15 -48 4 -5 10 -23 14 -40 10 -41 29 -85 38 -85 5 0 8 -10 8 -22 0 -13 6 -35 14 -50 8 -15 17 -40 21 -57 4 -17 11 -31 16 -31 5 0 9 -11 9 -25 0 -14 4 -25 9 -25 5 0 13 -14 16 -32 4 -18 11 -39 16 -48 4 -8 15 -33 25 -55 9 -22 20 -49 24 -60 43 -101 54 -125 70 -160 11 -22 22 -52 26 -67 3 -16 9 -28 13 -28 3 0 12 -15 20 -32 8 -18 22 -51 31 -73 9 -22 23 -55 31 -73 8 -17 17 -32 21 -32 5 0 8 -6 8 -12 1 -7 9 -31 20 -53 11 -22 19 -46 20 -52 0 -7 4 -13 8 -13 5 0 15 -17 23 -37 12 -33 75 -159 155 -313 13 -25 24 -51 24 -57 0 -7 3 -13 8 -13 4 0 16 -20 27 -45 11 -25 22 -45 25 -45 3 0 14 -20 25 -45 11 -25 23 -45 26 -45 4 0 10 -14 14 -30 4 -16 10 -30 15 -30 4 0 10 -10 14 -23 3 -12 14 -32 25 -44 11 -12 23 -33 27 -47 3 -14 9 -26 13 -26 4 0 12 -12 18 -28 7 -15 23 -45 37 -67 14 -22 35 -60 48 -85 13 -25 29 -51 36 -58 6 -7 12 -20 12 -28 0 -8 4 -14 9 -14 5 0 11 -8 15 -17 5 -18 26 -53 36 -63 10 -10 31 -45 36 -62 4 -10 10 -18 15 -18 5 0 9 -6 9 -14 0 -8 6 -21 13 -28 18 -20 37 -50 43 -70 4 -10 9 -18 13 -18 3 0 17 -20 31 -45 14 -25 28 -45 31 -45 4 0 9 -8 13 -17 5 -18 26 -54 36 -63 3 -3 21 -30 40 -60 19 -30 38 -56 42 -58 5 -2 8 -8 8 -14 0 -6 13 -27 30 -48 17 -21 30 -42 30 -47 0 -5 9 -15 20 -23 11 -8 20 -20 20 -26 0 -7 6 -19 13 -26 7 -7 22 -28 32 -45 11 -18 23 -33 27 -33 4 0 8 -7 8 -15 0 -9 7 -18 15 -21 8 -4 15 -11 15 -18 0 -6 11 -23 25 -38 14 -15 25 -30 25 -34 0 -8 62 -88 72 -92 5 -2 8 -9 8 -16 0 -7 10 -24 22 -38 37 -41 52 -61 76 -100 13 -20 26 -38 30 -40 4 -2 27 -30 51 -63 25 -33 47 -62 50 -65 5 -4 39 -48 86 -108 5 -8 21 -25 34 -39 13 -15 31 -38 40 -53 9 -14 26 -37 38 -51 13 -13 42 -47 65 -75 24 -28 63 -74 87 -102 24 -27 47 -55 51 -62 7 -11 80 -93 153 -173 22 -23 50 -55 64 -72 113 -139 786 -813 943 -945 28 -23 128 -113 193 -173 23 -22 62 -55 87 -75 25 -21 60 -52 79 -70 19 -17 37 -32 41 -32 3 0 27 -19 52 -42 63 -59 126 -111 146 -122 9 -5 26 -20 37 -33 11 -13 24 -23 28 -23 5 0 25 -16 45 -35 20 -19 40 -35 44 -35 4 0 13 -6 20 -13 7 -7 40 -33 73 -57 33 -25 71 -55 85 -68 14 -12 28 -22 32 -22 3 0 13 -6 20 -13 26 -23 97 -77 103 -77 3 0 17 -11 31 -25 14 -14 29 -25 34 -25 6 0 18 -8 28 -17 35 -34 76 -63 89 -63 7 0 13 -4 13 -9 0 -5 24 -24 53 -42 28 -19 61 -42 71 -51 11 -10 28 -20 38 -24 10 -3 18 -10 18 -15 0 -5 5 -9 11 -9 6 0 28 -13 49 -30 21 -16 43 -30 49 -30 6 0 11 -4 11 -10 0 -5 11 -12 25 -16 14 -3 25 -9 25 -14 0 -4 16 -15 35 -26 19 -10 35 -21 35 -25 0 -4 8 -9 18 -13 20 -6 50 -25 70 -44 7 -6 18 -12 23 -12 5 0 20 -9 32 -21 12 -11 31 -25 42 -30 21 -10 42 -22 90 -54 46 -31 69 -44 88 -51 9 -3 17 -10 17 -14 0 -4 8 -10 18 -14 9 -3 26 -11 37 -18 45 -29 124 -75 170 -98 28 -14 52 -28 53 -32 2 -5 10 -8 18 -8 8 0 14 -4 14 -9 0 -5 10 -13 22 -17 13 -4 25 -9 28 -13 7 -8 66 -41 235 -130 28 -14 52 -29 55 -32 9 -9 136 -69 148 -69 7 0 12 -4 12 -10 0 -5 7 -10 15 -10 8 0 15 -4 15 -9 0 -5 14 -12 30 -16 16 -4 30 -11 30 -16 0 -5 4 -9 10 -9 17 0 90 -34 90 -42 0 -5 5 -8 12 -8 15 0 142 -63 146 -72 2 -5 9 -8 15 -8 6 0 38 -13 71 -29 90 -43 133 -61 145 -61 6 0 11 -3 11 -8 0 -4 15 -13 33 -21 17 -8 51 -22 74 -32 23 -11 49 -19 57 -19 9 0 16 -3 16 -8 0 -9 74 -42 95 -42 8 0 15 -4 15 -10 0 -5 16 -12 35 -16 19 -3 35 -10 35 -15 0 -5 7 -9 15 -9 8 0 23 -4 33 -10 9 -5 35 -16 57 -25 22 -9 52 -23 67 -31 14 -8 36 -14 47 -14 12 0 21 -4 21 -10 0 -5 18 -13 40 -16 22 -4 40 -10 40 -13 0 -4 24 -15 53 -25 28 -10 66 -24 84 -32 17 -8 40 -14 52 -14 12 0 21 -4 21 -10 0 -5 6 -10 14 -10 7 0 27 -7 42 -15 16 -8 37 -15 46 -15 9 0 19 -4 22 -9 3 -5 23 -12 43 -16 21 -4 40 -10 43 -14 7 -9 102 -41 123 -41 9 0 17 -4 17 -9 0 -5 23 -12 50 -16 28 -4 50 -11 50 -16 0 -5 9 -9 19 -9 11 0 22 -4 26 -9 3 -6 26 -13 50 -17 25 -3 47 -10 50 -14 3 -5 28 -11 55 -15 28 -4 50 -11 50 -16 0 -5 11 -9 24 -9 14 0 27 -4 30 -9 4 -5 25 -12 48 -16 23 -4 49 -11 58 -15 24 -13 121 -40 141 -40 10 0 20 -4 23 -9 3 -5 27 -12 52 -16 26 -4 54 -10 63 -15 29 -14 86 -30 134 -36 26 -4 47 -10 47 -14 0 -4 25 -11 55 -15 30 -3 57 -11 60 -16 4 -5 19 -9 35 -9 16 0 31 -4 35 -9 3 -5 34 -13 70 -16 36 -4 65 -11 65 -15 0 -5 29 -12 65 -15 36 -4 68 -11 71 -16 3 -5 20 -9 39 -9 19 0 36 -4 40 -9 3 -5 34 -13 70 -16 36 -4 67 -11 70 -15 3 -4 36 -11 75 -15 39 -4 73 -11 76 -16 3 -5 23 -9 44 -9 21 0 41 -4 44 -9 3 -5 41 -12 83 -16 43 -4 83 -11 88 -15 11 -9 51 -15 198 -32 53 -6 97 -15 97 -19 0 -4 47 -10 105 -14 58 -4 108 -11 111 -16 3 -5 31 -9 63 -9 31 0 61 -4 67 -10 5 -5 70 -12 144 -16 74 -4 140 -10 145 -14 6 -5 84 -11 175 -15 91 -4 170 -11 175 -15 21 -17 292 -22 1090 -23 791 0 1095 6 1095 23 0 4 78 11 173 15 94 4 177 10 182 15 6 4 68 10 139 14 70 3 136 11 146 16 10 6 41 10 69 10 27 0 52 4 55 9 3 4 52 11 108 15 56 4 107 11 113 16 5 4 52 11 103 15 50 4 95 11 98 16 3 5 23 9 44 9 21 0 41 4 44 9 3 4 42 12 86 15 44 4 82 12 85 17 4 5 26 9 51 9 24 0 44 4 44 9 0 5 34 12 75 16 41 4 75 10 75 15 0 4 31 11 70 14 38 4 72 11 75 17 4 5 21 9 40 9 19 0 36 4 39 9 3 5 32 12 63 16 32 4 63 10 68 15 6 4 33 11 60 14 52 8 108 22 137 37 9 4 39 11 67 15 28 4 54 11 57 15 3 5 16 9 28 9 23 0 109 23 151 40 11 5 38 12 60 15 22 4 45 10 50 15 6 4 31 11 57 14 26 4 50 11 53 17 4 5 19 9 36 9 16 0 29 4 29 9 0 5 23 12 50 16 28 4 50 11 50 16 0 5 11 9 24 9 14 0 27 4 30 9 4 5 29 12 56 16 28 4 50 10 50 15 0 4 18 10 40 14 23 3 50 11 60 16 11 6 29 14 40 20 10 5 37 13 60 16 22 4 40 10 40 14 0 4 18 10 40 14 39 6 49 10 96 34 12 6 38 14 58 17 20 4 36 11 36 15 0 4 13 10 30 13 16 4 48 15 70 26 23 11 55 23 73 26 18 4 37 11 42 14 6 4 33 16 60 26 28 10 54 22 60 26 5 5 16 9 25 9 8 0 27 6 42 14 15 8 40 17 57 21 17 4 33 11 36 16 4 5 15 9 26 9 10 0 19 5 19 10 0 6 8 10 18 10 9 0 44 14 77 30 33 16 66 30 73 30 6 0 12 5 12 10 0 6 9 10 21 10 22 0 81 29 87 43 2 4 10 7 18 7 8 0 34 8 57 19 23 10 57 24 75 32 17 8 32 17 32 21 0 5 8 8 18 8 9 0 44 14 77 30 33 16 66 30 73 30 6 0 12 4 12 9 0 5 14 12 30 16 17 4 30 11 30 16 0 5 4 9 10 9 16 0 90 34 90 42 0 3 14 9 30 13 17 4 30 10 30 13 0 8 74 42 90 42 6 0 10 4 10 9 0 5 14 12 30 16 17 4 30 10 30 13 0 8 74 42 90 42 6 0 10 4 10 9 0 5 14 12 30 16 17 4 30 10 30 13 0 4 10 12 23 18 46 22 152 79 157 84 3 3 28 16 55 30 28 14 52 27 55 30 4 4 39 24 95 54 11 6 22 13 25 16 3 3 21 13 40 23 68 36 95 52 108 64 7 7 20 13 28 13 8 0 14 4 14 9 0 5 11 12 25 15 14 4 25 11 25 16 0 6 7 10 15 10 8 0 15 5 15 10 0 6 6 10 14 10 8 0 21 6 28 13 7 6 30 21 51 32 20 11 37 23 37 27 0 5 6 8 14 8 8 0 21 6 28 13 7 6 30 21 51 32 20 11 37 23 37 27 0 5 7 8 15 8 9 0 18 6 21 14 3 8 16 17 30 20 13 4 24 11 24 16 0 6 7 10 15 10 8 0 15 4 15 9 0 5 10 13 23 17 12 4 29 15 37 24 8 9 25 20 38 24 12 4 22 11 22 16 0 4 8 10 18 14 24 8 56 29 65 44 4 6 13 12 18 12 11 0 82 51 87 63 2 4 9 7 16 7 13 0 45 22 83 58 13 12 28 22 32 22 4 0 21 11 37 25 16 14 32 25 35 25 3 0 17 9 30 20 13 11 29 23 34 28 6 5 24 17 40 28 39 24 50 33 87 67 17 15 35 27 41 27 5 0 20 11 33 25 13 14 26 25 29 25 4 0 12 6 20 12 7 7 28 24 46 38 18 14 37 30 43 35 6 6 25 19 41 29 31 20 51 36 113 93 19 18 39 33 45 33 5 0 24 15 41 33 18 19 37 36 43 38 13 4 82 62 146 122 23 22 49 45 59 51 21 15 124 106 179 157 21 20 64 58 96 85 32 27 96 86 143 130 47 45 132 126 189 180 180 172 565 571 641 664 19 23 71 82 140 158 14 16 40 46 58 68 43 50 91 106 147 169 25 28 45 55 45 60 0 6 9 17 21 25 11 8 30 31 42 50 12 19 32 43 44 53 13 10 23 24 23 31 0 6 9 18 21 26 11 8 30 31 42 50 12 19 26 40 32 46 5 6 21 25 35 43 14 18 31 39 38 46 6 8 12 18 12 24 0 6 4 11 9 11 5 0 20 17 32 38 13 20 31 43 41 50 10 7 18 20 18 28 0 8 7 17 15 20 8 3 17 15 21 27 3 11 16 31 28 43 31 34 40 46 61 82 11 17 23 32 26 32 4 0 11 9 14 21 4 12 14 29 23 38 33 34 62 75 62 87 0 7 3 14 8 16 10 4 57 70 65 90 3 10 11 18 17 18 5 0 10 5 10 10 0 6 14 29 30 52 16 22 30 45 30 51 0 5 8 17 19 26 10 9 21 26 25 39 4 12 12 22 17 22 5 0 9 6 9 14 0 8 7 16 15 20 8 3 15 14 15 25 0 10 7 21 15 25 8 3 15 12 15 21 0 8 3 15 8 15 4 0 16 17 27 38 11 20 26 43 32 50 7 7 13 20 13 28 0 8 3 14 8 14 4 0 16 17 27 38 11 20 26 43 32 50 7 7 13 20 13 28 0 8 5 14 10 14 6 0 10 7 10 15 0 8 4 15 10 15 5 0 12 11 16 25 3 14 10 25 15 25 5 0 9 6 9 14 0 8 6 21 13 28 12 13 28 40 64 108 10 19 20 37 23 40 8 8 28 43 47 80 9 19 19 37 22 40 4 3 17 28 31 55 14 28 28 52 31 55 3 3 16 25 28 50 37 74 66 125 73 130 3 3 10 18 13 33 4 15 11 27 15 27 5 0 11 13 15 30 4 17 11 30 16 30 5 0 9 9 9 20 0 11 4 20 10 20 5 0 12 11 16 25 3 14 10 25 14 25 5 0 11 13 15 30 4 16 11 30 16 30 5 0 9 4 9 10 0 5 18 47 40 92 22 46 40 89 40 95 0 7 4 13 9 13 5 0 12 13 16 30 4 16 10 30 13 30 4 0 13 15 21 33 7 17 22 50 32 72 9 22 23 55 31 73 7 17 16 32 20 32 4 0 10 16 14 35 3 19 10 35 14 35 5 0 11 13 15 30 4 16 11 32 16 35 5 4 9 15 9 26 0 10 4 19 9 19 5 0 13 14 16 32 4 18 11 39 16 48 27 50 69 150 69 164 0 9 5 16 10 16 6 0 10 9 10 19 0 11 4 22 9 26 5 3 12 19 16 36 4 17 13 42 21 57 8 15 14 34 14 42 0 9 4 20 9 25 4 6 16 33 26 60 10 28 22 55 26 60 3 6 10 24 14 42 3 18 15 50 26 73 11 22 22 54 26 70 3 17 9 30 14 30 4 0 11 20 15 45 3 25 10 45 15 45 5 0 9 9 9 19 0 11 4 22 9 26 6 3 13 26 17 50 3 25 10 45 14 45 4 0 10 18 14 40 3 23 11 50 16 60 6 11 14 29 20 40 5 10 13 37 16 60 4 22 10 40 14 40 5 0 11 22 15 50 4 27 11 50 16 50 5 0 9 11 9 24 0 14 4 28 10 31 5 3 12 28 16 55 4 28 10 50 15 50 5 0 9 11 9 24 0 14 4 27 9 30 5 4 12 29 16 56 4 28 10 50 15 50 4 0 11 25 15 55 3 30 11 55 16 55 5 0 9 13 9 29 0 17 4 32 9 36 5 3 13 30 16 60 4 31 11 58 16 60 4 3 11 32 15 65 4 33 11 60 15 60 5 0 9 13 9 29 0 17 4 32 10 36 5 3 12 33 16 66 4 32 10 62 15 64 4 3 11 34 14 70 4 36 11 65 16 65 5 0 9 15 9 34 0 19 4 37 9 40 5 4 12 40 16 81 4 41 11 75 15 75 4 0 11 32 15 70 4 39 11 73 16 76 5 3 9 25 9 49 0 24 4 46 9 49 5 4 12 40 16 81 4 42 11 78 16 81 5 3 9 23 9 45 0 22 4 48 10 58 5 10 12 59 16 109 4 51 10 92 14 92 5 0 11 47 15 105 4 58 11 105 15 105 5 0 11 28 14 63 3 34 10 118 16 187 6 69 15 132 20 141 5 9 12 85 15 170 4 85 11 159 15 164 18 23 23 300 23 1140 0 846 -6 1107 -23 1130 -4 6 -10 79 -14 164 -4 84 -11 160 -16 170 -5 9 -13 77 -19 151 -16 193 -22 244 -30 250 -4 3 -13 52 -19 110 -19 175 -37 298 -44 306 -5 4 -8 26 -8 49 0 23 -3 45 -7 49 -7 7 -25 105 -39 214 -4 23 -10 42 -14 42 -4 0 -11 34 -15 75 -4 41 -10 77 -15 80 -4 3 -11 36 -15 75 -4 39 -11 73 -16 76 -5 3 -9 21 -9 40 0 19 -4 34 -9 34 -5 0 -12 29 -16 65 -3 36 -10 67 -15 70 -4 3 -11 32 -15 65 -4 33 -11 63 -16 66 -5 3 -9 18 -9 35 0 16 -4 29 -9 29 -4 0 -11 26 -15 59 -4 32 -10 62 -14 65 -7 7 -28 91 -39 154 -3 17 -9 32 -13 32 -4 0 -10 22 -14 50 -4 27 -11 52 -15 55 -5 3 -12 28 -16 55 -4 27 -11 52 -16 56 -5 3 -9 16 -9 29 0 13 -4 26 -9 29 -5 3 -12 26 -15 51 -4 24 -11 47 -17 50 -5 4 -9 17 -9 31 0 13 -4 24 -9 24 -5 0 -12 23 -16 50 -4 28 -10 50 -15 50 -4 0 -10 17 -12 38 -3 21 -15 58 -27 82 -12 25 -24 62 -28 82 -3 21 -9 38 -13 38 -4 0 -11 20 -14 45 -4 24 -11 47 -17 50 -5 4 -9 15 -9 26 0 10 -4 19 -10 19 -5 0 -10 10 -10 23 0 12 -7 35 -15 50 -8 15 -17 43 -21 63 -3 19 -10 37 -15 40 -5 3 -9 14 -9 25 0 10 -4 19 -9 19 -5 0 -12 18 -16 40 -4 22 -11 42 -16 46 -5 3 -9 13 -9 22 0 9 -11 39 -25 66 -14 27 -25 54 -25 59 0 5 -7 25 -16 45 -9 21 -22 52 -30 70 -8 18 -14 39 -14 47 0 8 -4 15 -10 15 -5 0 -10 7 -10 15 0 21 -33 95 -42 95 -5 0 -8 8 -8 18 0 9 -6 29 -14 44 -8 15 -17 40 -21 57 -4 17 -11 31 -16 31 -5 0 -9 9 -9 19 0 11 -4 22 -9 26 -5 3 -12 19 -16 35 -4 17 -11 30 -16 30 -5 0 -9 5 -9 12 0 11 -27 72 -81 183 -16 33 -29 66 -29 73 0 6 -4 12 -10 12 -5 0 -10 6 -10 13 0 6 -14 39 -30 72 -16 33 -30 65 -30 72 0 6 -3 13 -7 15 -11 4 -43 67 -43 83 0 7 -3 15 -7 17 -5 2 -19 26 -32 53 -13 28 -32 62 -42 76 -10 14 -21 37 -24 52 -4 15 -11 27 -15 27 -4 0 -11 12 -15 27 -3 15 -10 30 -14 33 -4 3 -17 25 -29 50 -23 48 -64 122 -72 130 -3 3 -18 32 -35 64 -16 33 -34 64 -40 70 -5 6 -18 28 -27 49 -10 20 -22 37 -28 37 -5 0 -10 7 -10 16 0 9 -13 39 -30 66 -16 26 -30 53 -30 58 0 6 -4 10 -10 10 -5 0 -10 6 -10 14 0 8 -6 21 -12 28 -7 7 -22 30 -32 51 -11 20 -23 37 -28 37 -4 0 -8 5 -8 12 0 13 -61 111 -72 116 -5 2 -8 9 -8 15 0 11 -104 174 -130 204 -5 7 -10 17 -10 23 0 5 -4 10 -9 10 -5 0 -12 11 -15 25 -4 14 -11 25 -16 25 -6 0 -10 6 -10 14 0 8 -3 16 -7 18 -9 3 -73 96 -73 104 0 3 -6 12 -12 19 -25 27 -34 40 -53 73 -11 17 -23 32 -27 32 -4 0 -8 6 -8 14 0 8 -6 21 -13 28 -7 7 -28 35 -47 63 -43 60 -60 83 -82 106 -9 9 -19 26 -23 38 -3 12 -10 21 -14 21 -3 0 -15 15 -26 33 -21 36 -30 47 -62 82 -13 13 -23 27 -23 31 0 5 -47 68 -75 101 -5 6 -20 24 -32 40 -12 15 -30 38 -40 50 -10 13 -34 44 -53 70 -19 26 -47 60 -62 76 -16 16 -28 32 -28 35 0 4 -12 21 -28 37 -15 17 -43 51 -62 75 -40 52 -54 69 -109 128 -22 24 -41 47 -43 51 -3 9 -111 131 -172 195 -21 23 -47 52 -58 66 -72 93 -436 469 -659 680 -66 63 -158 151 -202 195 -45 44 -101 95 -123 112 -23 18 -62 52 -86 75 -52 50 -155 140 -170 149 -12 8 -97 81 -158 137 -26 23 -50 42 -53 42 -3 0 -25 18 -48 40 -23 22 -46 40 -50 40 -4 0 -21 12 -37 28 -41 39 -112 96 -125 101 -6 2 -20 14 -31 26 -12 12 -34 30 -51 41 -29 18 -39 27 -94 73 -13 12 -28 21 -33 21 -5 0 -19 11 -32 25 -13 14 -26 25 -30 25 -4 0 -14 6 -21 13 -33 29 -45 37 -55 37 -5 0 -10 4 -10 9 0 5 -17 20 -37 32 -21 13 -39 27 -41 31 -2 4 -10 8 -18 8 -8 0 -14 3 -14 8 0 4 -18 18 -40 32 -22 14 -40 28 -40 32 0 5 -7 8 -15 8 -8 0 -15 3 -15 8 0 4 -22 19 -48 34 -26 15 -56 36 -66 47 -11 12 -25 21 -33 21 -7 0 -13 3 -13 8 0 4 -27 23 -60 42 -33 19 -60 38 -60 43 0 4 -7 7 -15 7 -8 0 -15 3 -15 8 0 4 -20 18 -45 32 -25 14 -45 28 -45 31 0 4 -8 9 -17 13 -21 6 -51 25 -71 44 -7 6 -18 12 -23 12 -5 0 -18 8 -29 18 -10 9 -40 28 -67 42 -26 14 -56 33 -67 42 -11 10 -29 21 -39 24 -11 4 -28 14 -38 23 -10 9 -39 27 -66 41 -26 14 -50 27 -53 30 -5 5 -41 26 -100 57 -19 10 -37 21 -40 24 -6 7 -99 59 -175 98 -27 14 -52 28 -55 31 -8 8 -143 80 -300 161 -47 24 -87 47 -90 51 -3 3 -18 10 -33 13 -15 4 -27 10 -27 14 0 4 -22 15 -50 26 -27 11 -50 23 -50 26 0 4 -13 10 -30 14 -16 4 -30 11 -30 16 0 5 -5 9 -10 9 -6 0 -48 18 -92 40 -45 22 -88 40 -95 40 -7 0 -13 5 -13 10 0 6 -5 10 -11 10 -11 0 -32 9 -145 62 -34 15 -67 28 -73 28 -6 0 -11 5 -11 10 0 6 -7 10 -15 10 -8 0 -23 4 -33 10 -37 20 -112 50 -126 50 -9 0 -16 5 -16 10 0 6 -6 10 -14 10 -8 0 -27 6 -43 14 -56 29 -101 46 -122 46 -12 0 -21 4 -21 8 0 4 -24 16 -52 26 -29 11 -57 23 -63 27 -5 5 -15 9 -23 9 -13 0 -66 21 -104 41 -10 5 -23 9 -30 9 -7 0 -25 6 -40 14 -15 8 -41 17 -59 21 -19 4 -40 11 -49 15 -38 20 -89 40 -102 40 -8 0 -18 3 -21 7 -11 10 -109 43 -129 43 -10 0 -18 4 -18 9 0 5 -16 12 -36 16 -20 3 -44 10 -53 15 -26 15 -110 40 -131 40 -11 0 -20 4 -20 9 0 5 -22 12 -50 16 -27 4 -50 11 -50 16 0 5 -11 9 -24 9 -14 0 -27 4 -30 9 -4 5 -25 12 -49 16 -23 4 -46 11 -52 15 -5 4 -29 11 -52 15 -24 4 -45 11 -49 16 -3 5 -18 9 -35 9 -16 0 -29 4 -29 9 0 5 -22 12 -50 16 -27 4 -52 11 -55 15 -3 5 -30 12 -60 15 -30 4 -55 11 -55 16 0 5 -13 9 -29 9 -17 0 -32 4 -36 9 -3 5 -30 13 -60 16 -31 4 -58 11 -61 16 -3 5 -18 9 -34 9 -16 0 -31 4 -35 10 -3 5 -33 12 -66 16 -32 4 -62 10 -64 15 -3 4 -34 11 -70 14 -36 4 -65 11 -65 15 0 8 -9 10 -140 32 -41 7 -80 16 -86 20 -6 4 -41 10 -77 14 -37 4 -67 10 -67 14 0 4 -24 10 -52 14 -94 11 -213 31 -223 37 -5 4 -49 10 -98 14 -48 4 -90 11 -93 16 -3 5 -23 9 -45 9 -22 0 -48 4 -58 9 -10 6 -63 13 -119 17 -56 4 -102 10 -102 14 0 4 -54 11 -120 15 -66 4 -120 11 -120 15 0 5 -33 11 -72 14 -172 13 -354 31 -363 37 -5 4 -126 10 -268 14 -141 4 -260 12 -263 16 -3 5 -297 9 -654 9 -357 0 -651 -4 -654 -9z m1309 -1001 c367 -18 580 -36 890 -76 737 -93 1333 -215 1955 -400 946 -280 1700 -588 2510 -1027 1335 -722 2548 -1701 3544 -2862 782 -910 1381 -1842 1901 -2960 306 -658 618 -1554 779 -2240 10 -38 28 -115 42 -170 13 -55 29 -122 34 -150 5 -27 17 -81 25 -120 23 -103 66 -329 96 -510 55 -332 78 -509 114 -875 81 -828 72 -1766 -26 -2615 -48 -425 -137 -942 -230 -1345 -11 -47 -27 -116 -36 -155 -158 -693 -464 -1586 -775 -2264 -400 -874 -845 -1625 -1392 -2351 -258 -342 -363 -472 -681 -835 -171 -196 -779 -806 -970 -975 -77 -67 -153 -135 -170 -149 -551 -487 -1255 -991 -1915 -1373 -773 -447 -1559 -803 -2364 -1069 -295 -98 -767 -233 -1011 -289 -432 -99 -473 -108 -560 -125 -38 -7 -108 -21 -155 -30 -977 -186 -2195 -246 -3270 -160 -443 36 -904 94 -1190 151 -41 8 -97 19 -125 24 -150 30 -305 63 -425 91 -74 17 -162 37 -195 44 -565 129 -1414 407 -1945 638 -853 371 -1473 709 -2195 1195 -883 595 -1763 1386 -2501 2248 -196 229 -464 572 -644 824 -684 958 -1222 1980 -1615 3070 -62 173 -139 405 -177 530 -300 1007 -432 1692 -527 2740 -40 436 -49 1130 -22 1660 32 627 130 1377 251 1930 12 52 25 115 30 140 14 64 95 393 115 465 9 33 21 78 26 100 6 22 26 94 46 160 19 66 37 129 40 140 18 68 103 337 157 495 323 938 761 1845 1308 2705 321 503 749 1069 1158 1530 819 924 1777 1735 2784 2360 1232 763 2466 1267 3941 1610 445 103 1245 222 1725 255 121 9 443 24 685 34 140 5 749 -3 960 -14z" transform="matrix(.1 0 0 -.1 0 3264)"/><path d="M15730 28449 c-19 -5 -132 -13 -250 -19 -252 -12 -331 -19 -345 -30 -5 -4 -70 -11 -143 -15 -73 -4 -134 -11 -137 -15 -3 -4 -53 -11 -112 -15 -60 -4 -112 -11 -118 -15 -5 -4 -54 -11 -107 -15 -54 -4 -100 -10 -103 -15 -3 -4 -45 -11 -95 -15 -49 -4 -90 -11 -90 -15 0 -4 -35 -10 -77 -14 -42 -4 -82 -10 -87 -14 -6 -4 -47 -12 -91 -19 -99 -14 -195 -32 -215 -40 -8 -4 -42 -12 -75 -19 -33 -7 -91 -20 -130 -29 -38 -9 -85 -19 -102 -22 -18 -3 -33 -9 -33 -13 0 -4 -27 -11 -60 -15 -33 -4 -60 -11 -60 -15 0 -4 -25 -11 -55 -15 -30 -3 -57 -10 -60 -15 -2 -4 -30 -11 -60 -15 -30 -3 -55 -10 -55 -14 0 -5 -22 -11 -50 -15 -27 -4 -52 -10 -54 -15 -3 -5 -26 -12 -51 -15 -24 -4 -47 -11 -50 -15 -2 -5 -23 -11 -45 -15 -23 -3 -49 -11 -58 -16 -9 -5 -51 -18 -92 -30 -41 -12 -83 -25 -92 -31 -10 -5 -27 -9 -38 -9 -11 0 -20 -4 -20 -9 0 -5 -20 -12 -45 -15 -25 -4 -45 -11 -45 -17 0 -5 -10 -9 -22 -9 -13 0 -36 -7 -51 -15 -15 -8 -43 -17 -63 -21 -19 -3 -37 -10 -40 -15 -3 -5 -13 -9 -22 -9 -9 0 -30 -7 -45 -15 -15 -8 -43 -17 -62 -21 -19 -3 -35 -10 -35 -14 0 -4 -16 -11 -36 -15 -20 -3 -44 -10 -53 -15 -31 -17 -174 -70 -187 -70 -8 0 -14 -4 -14 -9 0 -5 -14 -12 -31 -16 -17 -4 -42 -13 -57 -21 -15 -8 -35 -14 -44 -14 -10 0 -18 -4 -18 -9 0 -5 -14 -12 -31 -16 -17 -4 -42 -13 -57 -21 -15 -8 -33 -14 -39 -14 -7 0 -13 -4 -13 -10 0 -5 -8 -10 -17 -10 -10 -1 -36 -9 -58 -20 -22 -11 -46 -19 -52 -20 -7 0 -13 -4 -13 -10 0 -5 -6 -10 -14 -10 -8 0 -41 -13 -74 -30 -34 -16 -66 -30 -71 -30 -6 0 -11 -4 -11 -10 0 -5 -7 -10 -15 -10 -8 0 -32 -9 -52 -20 -21 -11 -43 -20 -50 -20 -7 0 -13 -4 -13 -10 0 -5 -6 -10 -13 -10 -15 0 -482 -235 -497 -250 -3 -3 -27 -16 -55 -29 -27 -14 -52 -27 -55 -30 -3 -3 -36 -21 -74 -40 -37 -19 -74 -40 -80 -45 -6 -6 -27 -20 -46 -30 -19 -11 -37 -22 -40 -25 -3 -3 -27 -17 -55 -31 -27 -14 -51 -28 -53 -32 -2 -5 -7 -8 -12 -8 -5 0 -32 -16 -61 -35 -30 -19 -59 -35 -65 -35 -7 0 -14 -3 -16 -8 -1 -4 -39 -30 -83 -57 -44 -27 -81 -53 -83 -57 -2 -4 -8 -8 -13 -8 -9 0 -69 -38 -79 -51 -3 -4 -15 -9 -27 -13 -13 -4 -23 -12 -23 -17 0 -5 -5 -9 -10 -9 -12 0 -73 -41 -78 -52 -2 -5 -8 -8 -13 -8 -5 0 -42 -24 -82 -53 -39 -29 -89 -63 -109 -76 -21 -12 -38 -27 -38 -32 0 -5 -6 -9 -13 -9 -8 0 -25 -9 -38 -20 -34 -28 -40 -32 -81 -60 -21 -14 -38 -28 -38 -32 0 -5 -4 -8 -10 -8 -12 0 -104 -69 -108 -81 -2 -5 -10 -9 -18 -9 -8 0 -14 -3 -14 -7 0 -5 -17 -19 -38 -33 -20 -14 -39 -27 -42 -31 -3 -3 -36 -29 -75 -58 -38 -30 -72 -56 -75 -60 -3 -3 -25 -22 -50 -41 -64 -49 -67 -51 -107 -87 -20 -18 -39 -33 -42 -33 -3 0 -27 -20 -52 -43 -25 -23 -66 -58 -90 -79 -46 -38 -58 -48 -153 -131 -122 -107 -321 -295 -475 -448 -248 -248 -589 -611 -614 -655 -4 -7 -20 -25 -35 -41 -33 -34 -122 -137 -154 -178 -12 -16 -30 -37 -38 -46 -17 -18 -82 -100 -159 -199 -28 -36 -57 -72 -64 -80 -8 -8 -23 -28 -33 -45 -10 -16 -24 -34 -30 -40 -12 -11 -160 -210 -215 -290 -18 -27 -36 -52 -40 -55 -3 -3 -16 -23 -29 -45 -13 -22 -27 -42 -31 -45 -3 -3 -41 -57 -83 -120 -42 -63 -81 -122 -86 -130 -127 -191 -357 -570 -436 -720 -11 -19 -21 -37 -24 -40 -3 -3 -16 -27 -30 -55 -14 -27 -28 -52 -31 -55 -4 -3 -10 -16 -14 -30 -4 -14 -10 -27 -14 -30 -21 -17 -281 -544 -281 -569 0 -6 -4 -11 -10 -11 -5 0 -10 -5 -10 -11 0 -6 -17 -48 -39 -92 -41 -87 -57 -122 -91 -202 -12 -27 -25 -59 -30 -70 -39 -88 -50 -116 -50 -129 0 -9 -4 -16 -9 -16 -5 0 -12 -14 -16 -31 -4 -17 -13 -42 -21 -57 -8 -15 -14 -35 -14 -44 0 -10 -4 -18 -10 -18 -5 0 -10 -8 -10 -18 0 -10 -4 -22 -8 -27 -5 -6 -19 -39 -32 -75 -12 -36 -29 -79 -36 -97 -8 -17 -14 -38 -14 -46 0 -9 -4 -18 -9 -22 -5 -3 -12 -19 -16 -36 -4 -17 -13 -42 -21 -57 -8 -15 -14 -37 -14 -49 0 -13 -4 -23 -9 -23 -6 0 -13 -20 -17 -45 -3 -25 -10 -45 -14 -45 -4 0 -11 -20 -14 -45 -4 -25 -11 -45 -16 -45 -5 0 -12 -20 -16 -45 -3 -25 -10 -45 -15 -45 -5 0 -9 -9 -9 -20 0 -11 -4 -28 -9 -38 -6 -9 -19 -51 -31 -92 -12 -41 -25 -82 -30 -91 -4 -9 -11 -37 -15 -63 -4 -25 -11 -49 -16 -51 -4 -3 -11 -26 -15 -50 -3 -25 -10 -47 -14 -50 -5 -3 -11 -28 -15 -55 -4 -27 -11 -52 -15 -55 -5 -3 -12 -30 -15 -60 -4 -30 -11 -55 -15 -55 -4 0 -11 -27 -15 -60 -4 -33 -11 -60 -15 -60 -4 0 -11 -27 -15 -60 -4 -33 -11 -63 -16 -66 -5 -3 -9 -18 -9 -34 0 -16 -4 -31 -9 -34 -5 -3 -12 -33 -16 -66 -4 -33 -11 -62 -15 -65 -5 -3 -12 -34 -15 -70 -4 -36 -11 -67 -15 -70 -4 -3 -11 -36 -15 -75 -4 -39 -11 -72 -15 -75 -5 -3 -11 -39 -15 -80 -4 -42 -11 -77 -15 -80 -5 -3 -11 -43 -15 -90 -4 -47 -11 -85 -15 -85 -5 0 -11 -43 -15 -95 -4 -52 -11 -95 -15 -95 -5 0 -11 -47 -15 -105 -4 -58 -11 -105 -15 -105 -4 0 -11 -56 -15 -125 -4 -69 -11 -127 -15 -130 -4 -3 -11 -71 -15 -152 -4 -82 -11 -153 -15 -158 -5 -6 -11 -51 -14 -100 -2 -50 -9 -155 -15 -235 -12 -188 -12 -1232 0 -1420 6 -80 13 -185 15 -235 3 -49 9 -94 13 -100 5 -5 12 -75 16 -155 3 -80 10 -149 15 -155 4 -5 11 -65 15 -132 4 -68 11 -123 15 -123 4 0 11 -47 15 -105 4 -58 11 -107 15 -110 4 -3 11 -45 15 -95 4 -50 11 -92 15 -95 4 -3 11 -41 15 -85 4 -44 11 -82 15 -85 4 -3 11 -38 15 -80 4 -41 10 -77 15 -80 4 -3 11 -35 15 -72 4 -38 10 -72 15 -78 4 -5 11 -37 15 -70 4 -33 10 -64 13 -70 6 -9 23 -84 38 -172 4 -18 10 -33 14 -33 4 0 10 -27 14 -60 4 -33 11 -62 16 -65 5 -3 12 -30 15 -60 4 -30 11 -55 15 -55 4 0 11 -27 15 -60 4 -33 11 -60 15 -60 4 0 11 -21 15 -46 4 -26 10 -54 15 -63 5 -9 14 -36 20 -61 26 -105 32 -126 40 -145 7 -18 17 -53 62 -202 7 -24 16 -43 19 -43 4 0 10 -20 13 -45 4 -24 11 -47 16 -50 4 -3 11 -23 15 -45 4 -22 10 -42 15 -45 5 -3 11 -23 15 -45 4 -22 10 -42 15 -45 4 -3 11 -20 14 -39 4 -20 13 -48 21 -63 8 -15 15 -36 15 -45 0 -10 4 -18 9 -18 5 0 12 -18 16 -40 4 -22 11 -42 16 -46 5 -3 9 -13 9 -22 1 -9 9 -35 20 -57 11 -22 19 -43 20 -47 0 -8 45 -113 59 -138 5 -9 12 -30 16 -48 3 -18 11 -32 16 -32 5 0 9 -7 9 -16 0 -13 11 -41 50 -129 5 -11 18 -42 30 -70 31 -73 45 -104 74 -166 14 -31 26 -61 26 -67 0 -7 4 -12 9 -12 5 0 12 -14 16 -30 4 -17 11 -30 16 -30 5 0 9 -7 9 -16 0 -9 6 -28 14 -42 8 -15 53 -106 101 -202 95 -194 157 -312 166 -320 4 -3 10 -16 14 -29 4 -14 21 -46 36 -72 16 -25 29 -51 29 -57 0 -6 3 -12 8 -14 4 -1 15 -19 26 -38 39 -75 79 -145 85 -150 3 -3 17 -26 31 -52 13 -27 28 -48 32 -48 5 0 8 -5 8 -11 0 -14 101 -183 112 -187 4 -2 8 -9 8 -14 0 -11 58 -107 70 -118 3 -3 17 -23 30 -45 44 -74 207 -320 229 -344 11 -13 21 -28 21 -33 0 -5 6 -16 12 -23 18 -20 28 -34 67 -90 61 -88 184 -250 193 -253 4 -2 8 -8 8 -14 0 -5 17 -31 37 -56 21 -26 41 -51 45 -57 4 -5 20 -26 36 -45 15 -19 50 -64 78 -100 51 -68 79 -102 104 -130 8 -9 33 -38 55 -65 40 -51 72 -88 90 -109 49 -55 147 -168 171 -196 16 -19 59 -66 95 -105 37 -38 95 -101 130 -139 84 -91 441 -448 510 -510 30 -27 88 -81 131 -120 82 -77 171 -156 258 -231 30 -26 79 -68 108 -93 30 -26 61 -51 70 -56 9 -5 25 -19 36 -31 12 -11 50 -43 85 -70 36 -28 72 -57 82 -65 9 -8 29 -25 45 -37 33 -26 84 -64 99 -75 6 -4 26 -21 46 -38 20 -16 41 -30 47 -30 6 0 12 -4 14 -9 4 -12 96 -81 108 -81 6 0 10 -4 10 -9 0 -5 17 -20 38 -32 38 -24 41 -26 81 -59 13 -11 30 -20 38 -20 7 0 13 -4 13 -9 0 -7 161 -122 218 -156 9 -5 19 -12 22 -15 15 -15 71 -50 80 -50 5 0 10 -4 10 -9 0 -5 10 -13 23 -17 12 -4 24 -10 27 -14 10 -14 145 -100 157 -100 7 0 13 -3 13 -8 0 -4 20 -18 45 -32 25 -14 45 -28 45 -32 0 -5 6 -8 13 -8 7 0 36 -16 66 -35 29 -19 57 -35 62 -35 5 0 9 -4 9 -10 0 -5 5 -10 11 -10 6 0 44 -20 83 -45 40 -25 78 -45 84 -45 7 0 12 -3 12 -8 0 -4 35 -25 78 -47 42 -22 79 -43 82 -46 3 -3 28 -16 55 -30 28 -13 52 -26 55 -29 17 -17 481 -250 497 -250 7 0 13 -4 13 -9 0 -5 14 -12 30 -16 17 -4 30 -11 30 -16 0 -5 5 -9 12 -9 11 0 114 -46 170 -76 14 -8 33 -14 42 -14 9 0 16 -4 16 -10 0 -5 6 -10 13 -10 6 -1 30 -9 52 -20 22 -11 48 -19 58 -20 9 0 17 -4 17 -10 0 -5 6 -10 13 -10 6 0 24 -6 39 -14 15 -8 40 -17 57 -21 17 -4 31 -10 31 -15 0 -5 13 -11 30 -15 16 -3 52 -17 80 -31 27 -13 54 -24 60 -24 6 0 18 -4 28 -10 41 -23 113 -50 131 -50 12 0 21 -4 21 -9 0 -5 18 -12 40 -16 22 -4 40 -10 40 -15 0 -4 16 -11 35 -14 19 -4 47 -13 62 -21 15 -8 36 -15 45 -15 9 0 19 -4 22 -9 4 -5 24 -12 46 -16 22 -4 42 -10 45 -15 3 -5 23 -11 45 -15 22 -4 40 -10 40 -13 0 -4 28 -15 63 -26 34 -10 69 -22 78 -26 9 -5 33 -12 53 -15 20 -4 39 -11 41 -16 3 -4 26 -11 50 -15 25 -3 45 -10 45 -14 0 -5 22 -11 50 -15 27 -4 52 -11 55 -15 3 -5 26 -12 50 -16 25 -3 47 -10 50 -14 3 -5 28 -11 55 -15 27 -4 52 -11 55 -15 3 -5 30 -12 60 -15 30 -4 55 -11 55 -15 0 -4 22 -10 50 -14 27 -4 52 -11 55 -16 3 -6 19 -10 35 -10 16 0 31 -4 34 -9 3 -5 33 -12 66 -16 33 -4 62 -11 65 -15 3 -5 30 -12 60 -15 31 -4 58 -11 60 -15 3 -5 34 -12 70 -15 36 -4 67 -11 70 -15 3 -4 36 -11 75 -15 39 -4 72 -11 75 -15 3 -5 39 -11 80 -15 42 -4 77 -11 80 -15 3 -4 41 -11 85 -15 44 -4 80 -11 80 -15 0 -4 41 -11 90 -15 50 -4 92 -11 95 -15 3 -5 50 -12 105 -15 55 -4 100 -11 100 -15 0 -5 26 -11 58 -14 150 -14 261 -27 298 -36 22 -5 94 -12 160 -15 65 -4 128 -11 139 -16 91 -42 2067 -41 2109 1 6 6 39 10 75 11 37 0 102 5 146 10 203 26 325 40 378 45 31 3 57 9 57 14 0 4 45 11 100 15 55 3 102 10 105 15 3 4 45 11 95 15 49 4 90 11 90 15 0 4 36 11 80 15 44 4 82 11 85 15 3 4 38 11 80 15 41 4 77 10 80 15 3 4 36 11 75 15 39 4 72 11 75 15 3 4 34 11 70 15 36 3 67 10 70 15 2 4 29 11 60 15 30 3 57 10 60 15 3 4 32 11 65 15 33 4 63 11 66 16 3 5 18 9 34 9 16 0 31 4 34 9 4 5 29 12 56 16 27 4 52 11 55 15 3 4 28 11 55 15 27 4 52 11 55 15 3 4 28 11 55 15 27 4 52 10 55 15 3 4 25 11 50 14 24 4 47 11 50 16 3 4 28 11 55 15 28 4 50 10 50 15 0 4 20 11 45 14 24 4 47 11 50 16 3 4 23 11 45 15 22 4 42 11 46 16 3 5 15 9 27 9 12 0 35 7 51 15 15 8 37 15 47 15 11 0 19 4 19 9 0 6 20 13 45 17 25 3 45 10 45 14 0 5 18 11 40 15 22 4 42 11 46 16 3 5 13 9 22 9 9 0 29 6 44 14 15 8 41 17 58 21 17 4 43 13 58 21 15 8 35 14 45 14 9 0 17 4 17 9 0 5 18 11 40 15 22 3 40 11 40 16 0 6 8 10 18 10 9 0 30 7 46 15 15 8 32 15 36 15 5 0 38 14 73 30 36 17 70 30 75 30 6 0 23 6 39 14 46 24 100 46 112 46 6 0 11 5 11 10 0 6 8 10 18 10 9 1 35 9 57 20 22 11 46 19 53 20 6 0 12 5 12 10 0 6 5 10 11 10 30 0 771 362 799 390 3 3 28 16 55 30 28 14 52 27 55 30 3 3 28 16 55 29 28 14 100 55 162 93 61 37 116 68 122 68 6 0 11 3 11 8 0 4 9 12 20 17 35 18 215 128 220 135 3 4 15 10 28 14 12 4 22 12 22 17 0 5 5 9 11 9 10 0 99 57 109 70 3 4 15 10 28 14 12 4 22 12 22 17 0 5 7 9 15 9 9 0 18 6 21 14 3 8 16 17 30 20 13 4 24 11 24 16 0 6 5 10 11 10 6 0 21 8 34 17 12 10 31 24 41 30 30 20 188 131 199 140 6 4 36 26 68 47 31 22 57 43 57 48 0 4 4 8 10 8 8 0 146 99 187 135 16 13 32 26 68 53 107 80 247 193 271 218 11 11 27 25 36 30 9 5 40 30 70 56 29 25 78 67 108 93 126 109 188 164 269 241 47 45 102 95 121 110 54 45 463 458 580 586 138 151 318 353 355 399 11 13 33 40 49 59 15 19 42 52 60 74 17 21 38 46 46 55 8 10 37 46 65 82 27 35 60 75 72 89 13 14 23 28 23 32 0 4 8 15 18 25 10 10 45 54 77 98 33 44 70 91 82 105 13 14 26 33 29 43 3 9 10 17 15 17 5 0 9 6 9 13 0 8 9 22 20 32 11 10 20 24 20 31 0 7 3 14 8 16 12 5 72 85 72 96 0 6 6 15 13 19 6 4 17 15 22 24 6 10 44 68 86 130 149 223 229 349 229 359 0 5 4 10 9 10 5 0 13 10 17 23 4 12 10 24 14 27 11 9 110 177 110 189 0 6 5 11 10 11 6 0 10 5 10 11 0 6 11 25 24 42 21 28 52 83 112 197 11 19 22 37 25 40 4 3 10 16 14 30 4 13 14 30 21 38 8 7 14 20 14 28 0 8 4 14 9 14 5 0 12 12 16 27 3 15 10 30 14 33 4 3 22 37 41 75 19 39 38 72 41 75 10 8 139 276 139 289 0 6 5 11 10 11 6 0 10 5 10 11 0 7 20 53 44 103 42 88 99 209 116 251 5 11 18 43 30 70 12 28 25 59 30 70 39 88 50 116 50 129 0 9 5 16 10 16 6 0 10 7 10 15 0 8 4 23 10 33 5 9 26 58 45 107 20 50 39 97 44 105 5 9 12 30 16 49 4 18 13 44 21 59 8 15 14 35 14 45 0 9 4 17 9 17 5 0 12 18 16 40 4 22 10 40 15 40 5 0 11 18 15 40 4 22 10 42 15 45 4 3 11 22 15 42 4 21 10 43 14 48 4 6 22 57 40 115 18 58 36 112 41 121 5 9 12 33 15 53 4 20 11 39 16 41 4 3 11 26 15 50 3 25 10 47 14 50 5 3 11 28 15 55 4 28 11 50 15 50 5 0 12 25 15 55 4 30 11 55 15 55 5 0 12 25 15 55 4 30 11 55 15 55 5 0 12 25 15 55 4 30 11 55 16 55 5 0 9 13 9 28 0 15 4 32 9 37 5 6 14 35 20 65 21 112 36 175 43 185 3 6 9 33 13 60 3 28 9 57 13 65 6 15 19 80 45 218 6 37 15 72 18 77 4 6 10 45 14 88 4 42 11 77 15 77 5 0 11 38 15 85 4 47 11 87 15 90 5 3 11 48 15 100 4 52 11 95 15 95 5 0 11 24 14 53 3 28 12 104 21 167 8 63 21 174 28 245 6 72 15 135 18 140 4 6 10 89 14 185 4 104 12 181 19 189 16 20 16 1642 0 1662 -7 8 -15 84 -19 184 -4 94 -10 175 -13 180 -4 6 -13 71 -19 145 -7 74 -20 187 -28 250 -9 63 -18 138 -21 165 -4 28 -10 55 -14 60 -4 6 -11 48 -15 95 -4 47 -11 90 -15 95 -4 6 -11 47 -15 93 -4 45 -11 82 -15 82 -4 0 -11 35 -15 78 -4 42 -10 82 -14 87 -3 6 -12 40 -18 78 -7 37 -19 97 -25 135 -7 37 -16 72 -19 77 -4 6 -10 35 -14 65 -4 30 -10 60 -14 65 -3 6 -11 35 -18 65 -6 30 -19 84 -28 120 -9 36 -19 80 -22 98 -3 17 -9 32 -13 32 -4 0 -11 25 -15 55 -3 30 -10 55 -15 55 -4 0 -11 25 -15 55 -3 30 -10 55 -15 55 -4 0 -11 22 -15 50 -4 27 -11 52 -15 55 -4 3 -11 28 -15 55 -4 28 -10 50 -15 50 -4 0 -11 20 -14 45 -4 24 -11 47 -15 50 -5 2 -12 25 -15 50 -4 24 -11 47 -16 50 -4 3 -11 23 -15 45 -4 22 -10 42 -15 45 -5 3 -11 23 -15 45 -4 22 -11 42 -16 46 -5 3 -9 16 -9 30 0 13 -4 24 -9 24 -5 0 -12 20 -15 45 -4 25 -11 45 -16 45 -4 0 -11 18 -15 40 -4 22 -10 42 -15 45 -5 3 -11 23 -15 45 -4 22 -11 40 -16 40 -5 0 -9 8 -9 18 0 9 -7 30 -15 45 -8 15 -17 43 -21 62 -3 19 -10 35 -15 35 -5 0 -9 7 -9 16 0 9 -6 30 -14 47 -8 18 -24 59 -37 92 -13 33 -27 64 -31 70 -4 5 -8 17 -8 27 0 10 -4 18 -10 18 -5 0 -10 7 -10 16 0 13 -11 41 -50 129 -5 11 -18 43 -30 70 -12 28 -28 64 -36 82 -8 17 -14 36 -14 42 0 6 -4 11 -10 11 -5 0 -10 7 -10 16 0 9 -6 28 -14 42 -34 63 -106 220 -106 231 0 6 -4 11 -9 11 -5 0 -12 14 -16 30 -4 17 -11 30 -16 30 -5 0 -9 6 -9 13 0 16 -177 366 -191 377 -3 3 -10 16 -14 30 -4 14 -10 27 -14 30 -3 3 -17 28 -31 55 -14 28 -27 52 -30 55 -3 3 -13 21 -24 40 -72 136 -136 243 -148 248 -5 2 -8 8 -8 14 0 13 -101 182 -112 186 -4 2 -8 9 -8 15 0 9 -99 168 -160 257 -5 8 -38 58 -73 110 -107 161 -188 277 -208 298 -10 12 -19 24 -19 27 0 7 -39 63 -57 83 -7 7 -13 16 -13 20 0 4 -14 23 -30 42 -33 39 -29 34 -90 115 -24 33 -52 68 -62 78 -10 10 -18 21 -18 25 0 4 -10 18 -23 32 -12 14 -38 45 -57 70 -19 25 -48 61 -65 81 -32 37 -46 54 -110 134 -22 27 -47 57 -55 66 -8 8 -26 29 -39 45 -60 72 -198 227 -336 376 -134 145 -507 522 -576 581 -24 22 -78 71 -119 110 -42 40 -104 97 -140 127 -35 30 -87 75 -115 100 -117 102 -169 145 -182 153 -8 5 -27 20 -43 35 -16 15 -35 32 -42 37 -7 6 -27 21 -44 35 -17 14 -48 39 -69 55 -20 17 -49 40 -63 53 -14 12 -28 22 -31 22 -3 0 -20 13 -37 28 -18 15 -42 34 -54 42 -12 8 -28 20 -34 25 -31 29 -138 105 -146 105 -6 0 -10 4 -10 8 0 5 -26 26 -57 48 -32 21 -60 41 -63 44 -3 3 -32 23 -65 45 -33 22 -68 48 -79 58 -11 9 -23 17 -27 17 -4 0 -14 6 -21 13 -25 23 -77 57 -88 57 -5 0 -10 4 -10 10 0 5 -11 12 -24 16 -14 3 -27 12 -30 20 -3 8 -12 14 -21 14 -8 0 -15 4 -15 9 0 5 -10 13 -22 17 -13 4 -25 9 -28 13 -10 13 -70 51 -79 51 -5 0 -11 4 -13 8 -1 4 -39 30 -83 57 -44 27 -82 52 -85 55 -3 3 -26 16 -52 30 -27 13 -48 28 -48 32 0 3 -10 10 -22 14 -13 4 -25 9 -28 13 -3 3 -27 17 -55 31 -27 14 -52 28 -55 32 -6 8 -143 87 -195 113 -22 11 -42 23 -45 26 -3 3 -27 16 -55 30 -27 13 -52 26 -55 29 -7 7 -112 61 -336 174 -203 102 -276 136 -294 136 -6 0 -10 5 -10 10 0 6 -5 10 -11 10 -5 0 -37 14 -71 30 -33 17 -66 30 -74 30 -8 0 -14 5 -14 10 0 6 -6 10 -12 10 -7 1 -31 9 -53 20 -22 11 -48 19 -57 20 -10 0 -18 5 -18 10 0 6 -5 10 -11 10 -11 0 -50 16 -114 45 -16 8 -42 17 -58 21 -15 3 -30 10 -33 15 -3 5 -12 9 -20 9 -8 0 -34 9 -57 19 -23 10 -73 31 -112 45 -38 15 -77 31 -86 36 -9 5 -33 12 -53 15 -20 4 -36 11 -36 15 0 4 -17 11 -37 15 -21 4 -42 10 -48 15 -5 4 -41 18 -80 30 -38 13 -74 27 -80 31 -5 4 -27 10 -48 14 -20 4 -40 11 -42 16 -3 4 -26 11 -50 15 -25 3 -45 9 -45 13 0 6 -16 11 -150 50 -41 12 -83 26 -92 31 -9 5 -35 13 -58 16 -22 4 -43 10 -45 15 -3 4 -26 11 -50 15 -25 3 -48 10 -51 15 -2 5 -27 11 -54 15 -28 4 -50 10 -50 14 0 4 -25 11 -55 15 -30 3 -57 10 -60 15 -3 5 -30 12 -60 15 -30 4 -55 11 -55 15 0 4 -27 11 -60 15 -33 4 -60 11 -60 15 0 4 -15 10 -32 13 -18 3 -64 13 -103 22 -38 9 -97 22 -130 28 -33 7 -64 15 -70 18 -5 4 -38 10 -73 14 -34 4 -64 11 -67 15 -3 5 -41 12 -85 16 -44 3 -83 10 -85 15 -3 4 -41 11 -85 15 -44 3 -80 10 -80 14 0 4 -41 11 -90 15 -50 4 -92 11 -95 15 -3 5 -49 11 -103 15 -53 4 -101 11 -107 15 -5 4 -58 11 -118 15 -59 4 -109 11 -112 15 -3 4 -64 11 -137 15 -73 4 -137 11 -143 15 -14 11 -94 18 -345 30 -118 6 -234 15 -258 20 -52 12 -1122 11 -1172 -1z m3550 -10484 l0 -7015 1153 -2 1152 -3 3 -1653 2 -1652 -4965 0 -4965 0 2 1652 3 1653 1238 3 1237 2 0 4591 c0 3669 -3 4590 -12 4586 -7 -2 -560 -262 -1229 -576 -669 -314 -1221 -571 -1227 -571 -12 0 15 -62 -357 835 -169 407 -417 1004 -551 1327 -134 323 -244 588 -244 591 0 2 127 64 283 137 354 168 888 435 1072 536 1040 569 1897 1297 2879 2447 l109 127 2208 0 2209 0 0 -7015z" transform="matrix(.1 0 0 -.1 0 3264)"/></g></svg>